<svg xmlns="http://www.w3.org/2000/svg" viewBox="0 0 654.09 155.62"><defs><style>.cls-1{fill:#5bb318;}.cls-2{fill:#e3ffb6;}</style></defs><g id="Layer_2" data-name="Layer 2"><g id="Layer_1-2" data-name="Layer 1"><path class="cls-1" d="M118.08,44.29q18.13,0,29.1,11.91t11,31.73v64.74H126.52v-62q0-8-3.9-12.65t-11.28-4.64q-7.82,0-12.13,5.28T94.89,93.2v59.47H63.26v-62q0-8-3.9-12.65T48.08,73.38q-7.81,0-12.13,5.28T31.63,93.2v59.47H0V47.24H31.63v9.7q8.64-12.66,28.25-12.65,18.34,0,27.63,13.91Q97.2,44.28,118.08,44.29Z"/><path class="cls-1" d="M179.87,47.23V152.67H211.5V47.23Z"/><path class="cls-2" d="M214.65,19a18.24,18.24,0,0,1-5.59,13.4,18.84,18.84,0,0,1-26.77,0A18.32,18.32,0,0,1,176.7,19a18.31,18.31,0,0,1,5.59-13.39,18.82,18.82,0,0,1,26.77,0A18.24,18.24,0,0,1,214.65,19Z"/><path class="cls-1" d="M352.77,44.29q18.14,0,29.1,11.91t11,31.73v64.74H361.2v-62q0-8-3.9-12.65T346,73.38q-7.8,0-12.12,5.28T329.57,93.2v59.47H298v-62c0-5.34-1.31-9.55-3.9-12.65s-6.37-4.64-11.29-4.64q-7.8,0-12.12,5.28T266.32,93.2v59.47H234.69V47.24h31.63v9.7Q275,44.28,294.57,44.29q18.35,0,27.63,13.91Q331.89,44.28,352.77,44.29Z"/><path class="cls-1" d="M477.6,44.29q20.88,0,35.64,16.13T528,100q0,23.42-14.76,39.54T477.6,155.62q-20.25,0-31.42-12.86v9.91H414.55V5.06h31.63V57.15Q457.36,44.28,477.6,44.29Zm-24.36,74.43q7.06,7,18,7t18-7q7.06-7,7.07-18.77T489.3,81.19q-7.07-7-18-7t-18,7q-7.07,6.94-7.06,18.76T453.24,118.72Z"/><path class="cls-1" d="M622.46,47.24h31.63V152.67H622.46v-9.91Q611.29,155.62,591,155.62q-20.88,0-35.63-16.13T540.64,100q0-23.4,14.77-39.53T591,44.29q20.25,0,31.42,12.86Zm-43.23,71.48q7,7,18.14,7t18.13-7q7-7,7-18.77t-7-18.76q-7-7-18.13-7t-18.14,7q-7,6.94-7,18.76T579.23,118.72Z"/></g></g></svg>