<svg id="svg" version="1.1" xmlns="http://www.w3.org/2000/svg" xmlns:xlink="http://www.w3.org/1999/xlink" width="400" height="400" viewBox="0, 0, 400,400"><g id="svgg"><path id="path0" d="M196.228 89.445 C 193.965 89.927,193.116 90.390,175.977 100.490 C 167.598 105.428,156.699 111.848,151.758 114.757 C 146.816 117.666,141.367 120.875,139.648 121.888 C 129.071 128.123,125.163 130.405,118.212 134.402 C 107.517 140.553,104.680 143.314,103.063 149.148 C 102.325 151.809,102.131 203.571,102.731 237.695 L 102.930 249.023 104.151 251.563 C 106.738 256.942,106.292 256.615,129.540 270.230 C 139.396 276.002,151.592 283.155,156.641 286.124 C 198.002 310.451,194.635 308.723,200.361 308.556 C 204.796 308.427,207.167 307.334,222.269 298.460 C 230.109 293.854,239.863 288.126,243.945 285.732 C 248.027 283.338,254.004 279.827,257.227 277.930 C 260.449 276.032,264.053 273.924,265.234 273.245 C 266.416 272.567,270.020 270.460,273.242 268.563 C 276.465 266.667,281.549 263.692,284.541 261.952 C 291.415 257.955,294.043 255.588,295.995 251.639 L 297.461 248.674 297.566 200.020 C 297.670 152.251,297.658 151.320,296.887 148.781 C 295.298 143.546,292.388 140.401,285.547 136.523 C 283.721 135.488,274.580 130.157,265.234 124.676 C 241.492 110.751,235.283 107.113,232.813 105.680 C 231.631 104.994,225.479 101.381,219.141 97.650 C 204.654 89.124,202.072 88.199,196.228 89.445 M202.644 108.027 C 203.441 108.359,204.885 109.127,205.855 109.732 C 206.824 110.338,211.396 113.035,216.016 115.727 C 220.635 118.418,234.434 126.471,246.680 133.621 C 258.926 140.772,271.171 147.918,273.891 149.503 C 280.870 153.567,280.078 147.219,280.078 199.122 L 280.078 243.244 279.199 244.536 C 278.620 245.388,276.522 246.891,273.047 248.944 C 263.673 254.481,259.679 256.834,253.906 260.223 C 246.307 264.685,221.303 279.431,211.146 285.441 C 202.216 290.725,200.289 291.473,198.037 290.532 C 196.702 289.974,191.664 287.045,171.875 275.319 C 166.611 272.200,155.186 265.465,146.484 260.353 C 123.154 246.647,121.548 245.660,120.801 244.560 C 120.161 243.619,120.110 240.686,120.013 198.963 L 119.909 154.372 120.885 153.212 C 121.947 151.950,122.822 151.423,157.031 131.446 C 169.814 123.981,183.674 115.857,187.830 113.393 C 198.591 107.013,199.463 106.697,202.644 108.027 M192.541 142.050 C 189.232 144.123,183.184 147.871,179.102 150.380 C 175.020 152.888,166.846 157.989,160.938 161.715 C 155.029 165.440,149.756 168.722,149.219 169.008 C 148.402 169.441,156.764 169.527,200.172 169.529 L 252.102 169.531 240.797 162.645 C 220.448 150.250,219.028 149.383,211.164 144.562 C 198.670 136.903,200.390 137.135,192.541 142.050 M159.587 176.468 C 146.490 176.523,135.620 176.724,135.431 176.913 C 135.102 177.242,136.651 181.369,148.715 212.305 C 151.396 219.180,154.546 227.354,155.715 230.469 C 158.142 236.937,158.293 237.110,161.500 237.107 C 163.962 237.105,164.313 236.953,167.566 234.485 C 175.943 228.130,188.732 232.443,192.018 242.732 C 193.059 245.993,193.304 246.094,200.178 246.094 C 206.848 246.094,206.898 246.075,207.816 243.164 C 211.318 232.062,224.652 227.964,233.709 235.207 C 235.482 236.626,237.006 237.109,239.700 237.109 C 242.572 237.109,242.953 236.613,245.848 229.102 C 247.255 225.449,250.795 216.396,253.714 208.984 C 262.257 187.290,266.085 177.572,266.293 177.054 C 266.497 176.545,212.110 176.246,159.587 176.468 M173.518 238.626 C 162.495 242.458,164.795 258.606,176.361 258.590 C 181.326 258.583,184.890 256.048,186.193 251.596 C 188.544 243.560,181.135 235.978,173.518 238.626 M221.381 238.311 C 209.447 241.157,211.300 258.628,223.531 258.585 C 236.439 258.540,237.437 239.650,224.609 238.164 C 223.643 238.052,222.190 238.118,221.381 238.311 " stroke="none" fill="#1f2a2f" fill-rule="evenodd"></path><path id="path1" d="M0.000 200.000 L 0.000 400.000 200.000 400.000 L 400.000 400.000 400.000 200.000 L 400.000 0.000 200.000 0.000 L 0.000 0.000 0.000 200.000 M205.202 89.819 C 206.411 90.235,209.910 92.058,212.978 93.871 C 222.490 99.491,238.607 108.969,244.336 112.313 C 247.344 114.068,253.936 117.929,258.984 120.893 C 269.944 127.326,280.751 133.639,286.177 136.779 C 292.656 140.528,295.360 143.472,296.916 148.473 C 298.107 152.300,298.063 245.865,296.869 249.733 C 295.222 255.064,293.000 257.133,282.031 263.543 C 278.701 265.490,271.494 269.719,266.016 272.941 C 260.537 276.164,251.836 281.259,246.680 284.263 C 241.523 287.268,230.801 293.568,222.852 298.264 C 201.016 311.164,199.474 311.391,186.308 303.660 C 167.339 292.522,133.017 272.397,123.242 266.680 C 106.131 256.674,104.711 255.407,102.928 248.563 C 102.213 245.819,102.053 152.711,102.758 149.654 C 104.088 143.884,107.107 140.718,116.435 135.312 C 129.315 127.847,167.764 105.255,187.046 93.821 C 195.427 88.851,199.670 87.916,205.202 89.819 M197.691 108.062 C 196.744 108.394,195.338 109.072,194.566 109.568 C 193.795 110.064,185.869 114.727,176.953 119.930 C 157.126 131.499,137.582 142.941,128.716 148.170 C 125.066 150.323,121.649 152.576,121.121 153.177 L 120.162 154.270 120.253 198.912 C 120.339 240.981,120.384 243.611,121.039 244.531 C 121.816 245.625,124.118 247.049,144.727 259.187 C 152.676 263.869,164.102 270.602,170.117 274.149 C 201.683 292.760,198.879 291.315,201.756 290.450 C 202.697 290.167,205.807 288.524,208.667 286.800 C 214.037 283.564,230.719 273.715,261.015 255.896 C 271.962 249.458,278.738 245.240,279.179 244.591 C 279.845 243.610,279.888 241.187,279.987 199.453 C 280.107 148.597,280.457 153.165,276.276 150.961 C 275.037 150.309,270.332 147.601,265.820 144.945 C 242.940 131.473,203.912 108.783,202.539 108.155 C 200.654 107.291,199.933 107.277,197.691 108.062 M202.312 139.118 C 204.126 140.138,232.406 157.314,235.547 159.302 C 236.084 159.643,240.104 162.083,244.479 164.726 C 248.855 167.369,252.371 169.532,252.292 169.533 C 243.713 169.665,148.442 169.663,148.452 169.531 C 148.460 169.424,151.053 167.733,154.214 165.774 C 157.375 163.815,163.828 159.796,168.555 156.842 C 199.058 137.781,198.878 137.891,199.758 137.891 C 199.964 137.891,201.113 138.443,202.312 139.118 M266.406 176.746 C 266.406 177.060,266.146 177.894,265.827 178.600 C 265.304 179.760,247.499 225.026,244.563 232.661 C 242.896 236.995,242.554 237.254,238.780 237.034 C 235.936 236.869,235.605 236.753,233.594 235.222 C 224.376 228.208,212.634 231.627,208.157 242.628 C 206.677 246.263,207.111 246.081,199.931 246.088 L 193.807 246.094 192.997 245.065 C 192.552 244.498,192.188 243.819,192.188 243.554 C 192.188 243.290,191.570 241.840,190.816 240.333 C 186.256 231.217,174.582 228.861,166.459 235.418 C 163.601 237.725,157.422 237.800,157.422 235.528 C 157.422 235.106,154.979 228.742,141.268 193.446 C 134.499 176.019,134.822 177.060,136.035 176.582 C 137.710 175.923,266.406 176.085,266.406 176.746 M180.273 238.759 C 188.540 241.884,188.919 254.309,180.859 257.937 C 173.870 261.084,166.306 256.163,166.249 248.433 C 166.195 241.122,173.392 236.158,180.273 238.759 M227.293 238.703 C 234.290 240.799,236.130 250.722,230.498 255.990 C 223.100 262.909,210.889 255.850,213.424 246.120 C 215.096 239.703,220.673 236.720,227.293 238.703 " stroke="none" fill="#fbf9ec" fill-rule="evenodd"></path><path id="path2" d="M137.407 176.448 C 137.893 176.542,138.596 176.538,138.969 176.440 C 139.343 176.342,138.945 176.266,138.086 176.270 C 137.227 176.275,136.921 176.355,137.407 176.448 M186.816 176.441 C 187.192 176.539,187.808 176.539,188.184 176.441 C 188.560 176.343,188.252 176.263,187.500 176.263 C 186.748 176.263,186.440 176.343,186.816 176.441 M262.402 176.454 C 263.101 176.541,264.243 176.541,264.941 176.454 C 265.640 176.368,265.068 176.297,263.672 176.297 C 262.275 176.297,261.704 176.368,262.402 176.454 M120.028 187.891 C 120.028 188.857,120.104 189.253,120.198 188.770 C 120.291 188.286,120.291 187.495,120.198 187.012 C 120.104 186.528,120.028 186.924,120.028 187.891 M120.047 192.969 C 120.047 194.365,120.118 194.937,120.204 194.238 C 120.291 193.540,120.291 192.397,120.204 191.699 C 120.118 191.001,120.047 191.572,120.047 192.969 M120.094 206.836 C 120.094 213.066,120.148 215.561,120.214 212.378 C 120.280 209.196,120.280 204.099,120.214 201.050 C 120.148 198.002,120.094 200.605,120.094 206.836 M120.028 219.922 C 120.028 220.889,120.104 221.284,120.198 220.801 C 120.291 220.317,120.291 219.526,120.198 219.043 C 120.104 218.560,120.028 218.955,120.028 219.922 M120.039 223.828 C 120.039 225.010,120.112 225.493,120.202 224.902 C 120.291 224.312,120.291 223.345,120.202 222.754 C 120.112 222.163,120.039 222.646,120.039 223.828 M102.514 236.914 C 102.514 242.500,102.569 244.731,102.636 241.871 C 102.703 239.012,102.703 234.442,102.635 231.715 C 102.568 228.989,102.514 231.328,102.514 236.914 M120.085 234.375 C 120.085 238.564,120.143 240.278,120.213 238.184 C 120.283 236.089,120.283 232.661,120.213 230.566 C 120.143 228.472,120.085 230.186,120.085 234.375 M212.981 248.438 C 212.981 249.189,213.062 249.497,213.160 249.121 C 213.258 248.745,213.258 248.130,213.160 247.754 C 213.062 247.378,212.981 247.686,212.981 248.438 M175.684 258.869 C 176.167 258.963,176.958 258.963,177.441 258.869 C 177.925 258.776,177.529 258.700,176.563 258.700 C 175.596 258.700,175.200 258.776,175.684 258.869 M222.954 258.870 C 223.440 258.963,224.143 258.960,224.516 258.862 C 224.890 258.764,224.492 258.688,223.633 258.692 C 222.773 258.697,222.468 258.777,222.954 258.870 " stroke="none" fill="#989b95" fill-rule="evenodd"></path><path id="path3" d="M120.088 173.047 C 120.088 177.666,120.144 179.556,120.213 177.246 C 120.282 174.937,120.282 171.157,120.213 168.848 C 120.144 166.538,120.088 168.428,120.088 173.047 M162.994 176.452 C 163.587 176.542,164.466 176.540,164.947 176.447 C 165.427 176.354,164.941 176.281,163.867 176.284 C 162.793 176.287,162.400 176.362,162.994 176.452 M167.491 176.458 C 168.410 176.541,169.816 176.540,170.616 176.456 C 171.416 176.372,170.664 176.304,168.945 176.306 C 167.227 176.307,166.572 176.376,167.491 176.458 M204.590 176.464 C 209.585 176.526,217.759 176.526,222.754 176.464 C 227.749 176.403,223.662 176.352,213.672 176.352 C 203.682 176.352,199.595 176.403,204.590 176.464 M238.770 176.464 C 241.294 176.532,245.425 176.532,247.949 176.464 C 250.474 176.396,248.408 176.340,243.359 176.340 C 238.311 176.340,236.245 176.396,238.770 176.464 M253.418 176.448 C 253.901 176.541,254.692 176.541,255.176 176.448 C 255.659 176.354,255.264 176.278,254.297 176.278 C 253.330 176.278,252.935 176.354,253.418 176.448 M256.938 176.448 C 257.424 176.542,258.127 176.538,258.501 176.440 C 258.874 176.342,258.477 176.266,257.617 176.270 C 256.758 176.275,256.452 176.355,256.938 176.448 " stroke="none" fill="#7c7c78" fill-rule="evenodd"></path><path id="path4" d="M145.020 176.463 C 147.114 176.533,150.542 176.533,152.637 176.463 C 154.731 176.393,153.018 176.335,148.828 176.335 C 144.639 176.335,142.925 176.393,145.020 176.463 M160.063 176.448 C 160.549 176.542,161.252 176.538,161.626 176.440 C 161.999 176.342,161.602 176.266,160.742 176.270 C 159.883 176.275,159.577 176.355,160.063 176.448 M172.563 176.448 C 173.049 176.542,173.752 176.538,174.126 176.440 C 174.499 176.342,174.102 176.266,173.242 176.270 C 172.383 176.275,172.077 176.355,172.563 176.448 " stroke="none" fill="#747c72" fill-rule="evenodd"></path></g></svg>