<svg id="svg" version="1.1" xmlns="http://www.w3.org/2000/svg" xmlns:xlink="http://www.w3.org/1999/xlink" width="400" height="400" viewBox="0, 0, 400,400"><g id="svgg"><path id="path0" d="M86.133 139.397 C 80.723 142.070,43.441 163.714,42.177 164.916 C 39.093 167.850,39.258 166.107,39.258 195.703 C 39.258 225.635,39.138 224.420,42.374 227.239 C 44.149 228.786,84.438 252.449,87.242 253.592 C 91.198 255.205,90.511 255.508,116.078 240.832 C 138.074 228.206,139.659 227.168,141.148 224.414 C 142.278 222.323,142.701 173.060,141.620 169.343 C 140.574 165.743,139.312 164.775,125.000 156.595 C 117.803 152.481,107.783 146.727,102.734 143.807 C 91.864 137.522,90.605 137.188,86.133 139.397 M97.458 152.024 C 119.486 164.658,131.517 171.622,131.994 172.012 C 132.768 172.646,132.269 217.814,131.467 219.735 C 131.145 220.505,130.300 221.344,129.243 221.942 C 128.306 222.472,122.090 226.043,115.430 229.877 C 92.945 242.823,91.279 243.750,90.504 243.750 C 89.755 243.750,77.413 236.843,60.938 227.204 C 56.533 224.627,52.184 222.096,51.273 221.580 C 50.362 221.063,49.530 220.499,49.423 220.327 C 48.935 219.537,49.200 172.117,49.696 171.622 C 50.679 170.640,89.665 148.460,90.427 148.449 C 90.855 148.443,94.019 150.051,97.458 152.024 M76.779 173.069 L 63.519 180.859 90.626 180.859 L 117.733 180.859 107.402 174.772 C 91.963 165.676,91.180 165.233,90.587 165.256 C 90.285 165.268,84.072 168.784,76.779 173.069 M197.700 176.391 C 195.347 178.370,195.885 181.885,198.722 183.070 C 202.566 184.677,206.000 181.014,204.098 177.336 C 202.944 175.105,199.782 174.638,197.700 176.391 M303.949 175.936 C 299.376 178.470,303.548 185.415,308.199 183.010 C 311.050 181.536,311.366 178.128,308.841 176.083 C 307.847 175.278,305.276 175.200,303.949 175.936 M155.859 195.104 L 155.859 213.672 159.369 213.672 L 162.879 213.672 162.983 201.660 L 163.086 189.648 166.966 197.559 L 170.846 205.469 173.632 205.469 L 176.417 205.469 180.366 197.363 L 184.315 189.258 184.345 201.465 L 184.375 213.672 188.086 213.672 L 191.797 213.672 191.797 195.117 L 191.797 176.563 187.402 176.565 L 183.008 176.568 178.357 186.335 C 175.799 191.707,173.655 196.050,173.591 195.987 C 173.527 195.923,171.449 191.571,168.972 186.314 L 164.468 176.758 160.164 176.647 L 155.859 176.537 155.859 195.104 M267.578 195.117 L 267.578 213.672 271.680 213.672 L 275.781 213.672 275.781 206.250 L 275.781 198.828 282.617 198.828 L 289.453 198.828 289.453 206.250 L 289.453 213.672 293.359 213.672 L 297.266 213.672 297.266 195.117 L 297.266 176.563 293.359 176.563 L 289.453 176.563 289.453 184.180 L 289.453 191.797 282.617 191.797 L 275.781 191.797 275.781 184.180 L 275.781 176.563 271.680 176.563 L 267.578 176.563 267.578 195.117 M90.518 184.670 L 56.623 184.770 57.175 185.842 C 57.478 186.432,60.306 193.149,63.458 200.770 C 70.463 217.707,69.739 216.686,73.024 214.275 C 78.090 210.556,84.517 212.470,87.071 218.457 L 87.863 220.313 90.954 220.313 C 94.252 220.313,94.625 220.126,95.073 218.252 C 96.358 212.878,104.464 210.785,109.049 214.643 C 110.370 215.755,111.400 215.888,112.232 215.056 C 112.740 214.548,124.783 184.714,124.521 184.612 C 124.462 184.589,109.161 184.615,90.518 184.670 M219.922 186.948 C 218.955 187.294,217.782 187.930,217.315 188.360 L 216.466 189.143 216.338 188.028 L 216.211 186.914 212.793 186.801 L 209.375 186.688 209.375 200.180 L 209.375 213.672 213.086 213.672 L 216.797 213.672 216.797 204.863 C 216.797 197.754,216.911 195.834,217.389 194.909 C 218.752 192.275,222.520 191.871,224.768 194.118 L 225.977 195.326 226.094 204.499 L 226.212 213.672 229.903 213.672 L 233.594 213.672 233.594 204.707 C 233.594 194.619,233.287 192.479,231.503 190.141 C 229.073 186.955,223.889 185.526,219.922 186.948 M245.833 187.051 C 235.096 190.762,234.120 207.701,244.348 212.814 C 249.633 215.455,256.670 214.327,260.709 210.191 L 262.122 208.743 259.338 206.972 L 256.554 205.201 255.617 206.137 C 252.541 209.213,247.384 208.680,245.359 205.077 C 243.763 202.238,243.438 202.344,253.759 202.344 L 262.986 202.344 262.819 198.843 C 262.369 189.438,254.578 184.029,245.833 187.051 M348.567 187.028 C 337.959 190.815,337.108 207.709,347.264 212.890 C 352.332 215.475,359.021 214.443,363.172 210.436 L 364.821 208.844 362.306 207.156 C 359.497 205.272,359.292 205.213,358.570 206.083 C 355.452 209.840,348.571 208.193,347.436 203.418 L 347.181 202.344 356.450 202.344 L 365.718 202.344 365.550 198.730 C 365.115 189.381,357.219 183.940,348.567 187.028 M196.875 200.195 L 196.875 213.672 200.586 213.672 L 204.297 213.672 204.297 200.195 L 204.297 186.719 200.586 186.719 L 196.875 186.719 196.875 200.195 M302.734 200.195 L 302.734 213.672 306.445 213.672 L 310.156 213.672 310.156 200.195 L 310.156 186.719 306.445 186.719 L 302.734 186.719 302.734 200.195 M314.109 189.941 C 314.743 191.714,316.884 197.734,318.867 203.320 L 322.470 213.477 326.510 213.477 L 330.550 213.477 335.188 200.195 C 337.740 192.891,339.831 186.870,339.835 186.816 C 339.840 186.763,338.094 186.719,335.956 186.719 L 332.068 186.719 331.717 187.988 C 330.162 193.611,326.772 204.940,326.573 205.177 C 326.437 205.339,325.125 201.252,323.657 196.095 L 320.989 186.719 316.972 186.719 L 312.955 186.719 314.109 189.941 M252.494 192.729 C 253.911 193.321,255.406 195.138,255.564 196.459 C 255.662 197.281,255.556 197.298,250.252 197.306 C 244.114 197.316,244.261 197.360,245.093 195.751 C 246.715 192.613,249.497 191.477,252.494 192.729 M355.765 192.967 C 357.084 193.771,358.590 195.852,358.592 196.875 C 358.594 197.405,347.956 197.696,347.440 197.179 C 347.367 197.107,347.697 196.355,348.172 195.508 C 349.898 192.431,353.119 191.353,355.765 192.967 M76.335 216.394 C 73.841 217.403,72.505 220.900,73.690 223.318 C 75.935 227.897,82.310 227.423,83.614 222.580 C 84.689 218.588,80.245 214.812,76.335 216.394 M100.507 216.758 C 96.849 219.056,97.389 224.735,101.398 226.133 C 107.002 228.086,110.951 221.513,106.650 217.392 C 105.109 215.915,102.308 215.626,100.507 216.758 " stroke="none" fill="#1a2329" fill-rule="evenodd"></path><path id="path1" d="M0.000 200.000 L 0.000 400.000 200.000 400.000 L 400.000 400.000 400.000 200.000 L 400.000 0.000 200.000 0.000 L 0.000 0.000 0.000 200.000 M92.712 138.312 C 93.537 138.541,95.646 139.574,97.399 140.607 C 99.152 141.640,108.936 147.265,119.141 153.108 C 129.346 158.950,138.344 164.358,139.136 165.124 C 142.347 168.230,142.222 166.898,142.100 196.807 L 141.992 223.304 140.816 225.226 C 139.321 227.669,139.525 227.540,114.090 242.108 C 87.417 257.385,92.195 256.840,74.609 246.615 C 39.242 226.052,40.876 227.133,39.662 223.478 C 38.544 220.112,38.951 169.518,40.114 167.346 C 41.518 164.722,42.695 163.959,64.946 151.239 C 89.837 137.011,89.161 137.326,92.712 138.312 M70.413 159.668 C 59.627 165.845,50.446 171.204,50.010 171.578 C 48.858 172.568,48.754 219.390,49.902 220.405 C 51.580 221.888,89.641 243.750,90.545 243.750 C 90.881 243.750,93.629 242.315,96.652 240.561 C 99.675 238.806,108.389 233.788,116.016 229.409 C 123.643 225.030,130.322 221.012,130.859 220.480 L 131.836 219.514 131.952 195.792 C 132.062 173.313,132.031 172.048,131.366 171.642 C 126.620 168.745,90.858 148.438,90.503 148.438 C 90.239 148.438,81.198 153.491,70.413 159.668 M101.497 171.147 C 107.011 174.399,112.804 177.827,114.369 178.764 C 115.935 179.702,117.385 180.469,117.592 180.469 C 117.799 180.469,117.969 180.645,117.969 180.859 C 117.969 181.116,108.594 181.250,90.625 181.250 C 75.586 181.250,63.282 181.118,63.282 180.957 C 63.283 180.796,64.206 180.178,65.333 179.584 C 66.460 178.990,72.393 175.535,78.516 171.908 C 84.639 168.280,90.058 165.294,90.559 165.273 C 91.083 165.251,95.732 167.748,101.497 171.147 M202.339 175.584 C 203.938 176.410,204.689 177.661,204.679 179.481 C 204.658 183.327,200.196 185.039,197.422 182.266 C 194.000 178.843,198.036 173.358,202.339 175.584 M308.199 175.584 C 311.320 177.198,311.394 181.589,308.326 183.157 C 305.558 184.573,301.953 182.461,301.953 179.423 C 301.953 176.156,305.312 174.091,308.199 175.584 M169.100 186.298 L 173.619 195.838 178.288 186.200 L 182.957 176.563 187.377 176.563 L 191.797 176.563 191.797 195.117 L 191.797 213.672 188.086 213.672 L 184.375 213.672 184.344 201.660 L 184.313 189.648 180.340 197.656 L 176.367 205.664 173.615 205.777 L 170.863 205.890 166.974 197.812 L 163.086 189.733 163.205 201.702 L 163.323 213.672 159.396 213.672 L 155.469 213.672 155.469 195.105 L 155.469 176.538 160.025 176.648 L 164.581 176.758 169.100 186.298 M275.781 183.984 L 275.781 191.406 282.520 191.407 L 289.258 191.407 289.144 183.985 L 289.030 176.563 293.148 176.563 L 297.266 176.563 297.266 195.117 L 297.266 213.672 293.164 213.672 L 289.063 213.672 289.063 206.250 L 289.063 198.828 282.422 198.828 L 275.781 198.828 275.781 206.250 L 275.781 213.672 271.680 213.672 L 267.578 213.672 267.578 195.117 L 267.578 176.563 271.680 176.563 L 275.781 176.563 275.781 183.984 M124.609 184.765 C 124.609 185.368,112.897 214.561,112.428 215.125 C 111.851 215.821,109.965 215.750,109.351 215.011 C 105.617 210.511,97.242 212.626,95.177 218.590 L 94.648 220.117 91.177 220.117 L 87.707 220.117 86.787 218.164 C 84.039 212.330,77.451 210.663,72.763 214.616 C 69.942 216.995,70.142 217.294,63.006 200.038 C 59.505 191.573,56.641 184.586,56.641 184.511 C 56.641 184.436,71.934 184.375,90.625 184.375 C 112.964 184.375,124.609 184.509,124.609 184.765 M255.145 186.966 C 260.059 188.517,263.946 195.501,263.043 201.156 L 262.823 202.539 253.677 202.428 C 247.386 202.351,244.531 202.446,244.531 202.733 C 244.531 207.478,251.322 209.667,255.275 206.196 L 256.577 205.053 259.341 206.841 C 262.464 208.861,262.481 209.277,259.535 211.524 C 250.445 218.457,237.919 212.781,237.209 201.408 C 236.532 190.559,244.979 183.758,255.145 186.966 M357.899 186.962 C 362.525 188.450,365.663 193.288,365.763 199.087 L 365.820 202.388 356.769 202.353 C 346.830 202.315,347.008 202.269,348.051 204.599 C 349.762 208.421,354.978 209.263,358.214 206.240 L 359.468 205.069 362.156 206.839 C 365.318 208.923,365.303 208.869,363.230 210.742 C 354.952 218.221,342.204 213.990,340.231 203.107 C 338.189 191.846,347.272 183.545,357.899 186.962 M227.008 186.781 C 232.440 188.409,233.585 191.370,233.590 203.809 L 233.594 213.672 229.883 213.672 L 226.172 213.672 226.171 205.176 C 226.170 194.419,225.151 192.080,220.752 192.738 C 217.313 193.253,216.797 194.886,216.797 205.261 L 216.797 213.672 213.086 213.672 L 209.375 213.672 209.375 200.195 L 209.375 186.719 212.891 186.719 C 216.318 186.719,216.406 186.742,216.406 187.635 L 216.406 188.551 218.610 187.440 C 221.058 186.204,224.248 185.954,227.008 186.781 M204.297 200.195 L 204.297 213.672 200.488 213.672 L 196.680 213.672 196.680 200.195 L 196.680 186.719 200.488 186.719 L 204.297 186.719 204.297 200.195 M310.156 200.195 L 310.156 213.672 306.348 213.672 L 302.539 213.672 302.634 200.293 C 302.686 192.935,302.730 186.870,302.731 186.816 C 302.733 186.763,304.404 186.719,306.445 186.719 L 310.156 186.719 310.156 200.195 M323.756 195.995 C 325.158 200.989,326.388 204.993,326.489 204.891 C 326.590 204.790,327.854 200.704,329.297 195.811 L 331.920 186.914 335.913 186.802 C 339.211 186.710,339.884 186.788,339.777 187.248 C 339.706 187.555,337.627 193.625,335.156 200.737 L 330.664 213.668 326.465 213.670 C 324.155 213.671,322.266 213.600,322.266 213.511 C 322.266 213.364,313.685 189.003,313.064 187.389 C 312.816 186.742,313.101 186.699,317.002 186.803 L 321.207 186.914 323.756 195.995 M248.688 192.589 C 247.221 193.029,246.179 194.006,245.263 195.801 L 244.515 197.266 250.178 197.266 L 255.840 197.266 255.434 196.191 C 254.828 194.588,253.151 193.013,251.585 192.578 C 250.016 192.142,250.183 192.141,248.688 192.589 M350.939 192.926 C 349.457 193.604,347.656 195.741,347.656 196.823 C 347.656 197.132,349.321 197.266,353.151 197.266 L 358.646 197.266 358.368 196.387 C 357.332 193.109,353.968 191.542,350.939 192.926 M81.250 216.774 C 83.761 218.525,84.549 221.153,83.332 223.718 C 81.519 227.539,75.497 227.506,73.674 223.665 C 71.331 218.727,76.851 213.705,81.250 216.774 M105.311 216.369 C 109.346 218.202,109.700 223.991,105.896 225.958 C 100.590 228.702,95.326 222.434,99.135 217.908 C 100.994 215.699,102.829 215.241,105.311 216.369 " stroke="none" fill="#fbfbec" fill-rule="evenodd"></path><path id="path2" d="M132.148 177.734 C 132.148 178.916,132.222 179.399,132.311 178.809 C 132.401 178.218,132.401 177.251,132.311 176.660 C 132.222 176.069,132.148 176.553,132.148 177.734 M289.225 183.789 C 289.226 187.871,289.284 189.488,289.354 187.382 C 289.424 185.276,289.424 181.936,289.353 179.960 C 289.283 177.984,289.225 179.707,289.225 183.789 M155.611 183.789 C 155.612 185.938,155.678 186.767,155.757 185.631 C 155.836 184.496,155.836 182.738,155.755 181.725 C 155.675 180.712,155.610 181.641,155.611 183.789 M77.246 181.152 C 84.604 181.212,96.646 181.212,104.004 181.152 C 111.362 181.093,105.342 181.044,90.625 181.044 C 75.908 181.044,69.888 181.093,77.246 181.152 M155.643 200.586 C 155.643 207.461,155.696 210.218,155.761 206.714 C 155.826 203.209,155.826 197.584,155.761 194.214 C 155.696 190.843,155.643 193.711,155.643 200.586 M163.063 202.344 C 163.063 208.682,163.117 211.274,163.183 208.105 C 163.248 204.937,163.248 199.751,163.183 196.582 C 163.117 193.413,163.063 196.006,163.063 202.344 M279.004 191.676 C 279.380 191.774,279.995 191.774,280.371 191.676 C 280.747 191.577,280.439 191.497,279.688 191.497 C 278.936 191.497,278.628 191.577,279.004 191.676 M283.496 191.692 C 284.409 191.775,285.903 191.775,286.816 191.692 C 287.729 191.610,286.982 191.543,285.156 191.543 C 283.330 191.543,282.583 191.610,283.496 191.692 M289.226 206.250 C 289.226 210.439,289.283 212.153,289.354 210.059 C 289.424 207.964,289.424 204.536,289.354 202.441 C 289.283 200.347,289.226 202.061,289.226 206.250 M171.973 205.753 C 172.778 205.838,174.097 205.838,174.902 205.753 C 175.708 205.669,175.049 205.600,173.438 205.600 C 171.826 205.600,171.167 205.669,171.973 205.753 " stroke="none" fill="#999b97" fill-rule="evenodd"></path><path id="path3" d="M155.575 178.516 C 155.575 179.482,155.651 179.878,155.744 179.395 C 155.838 178.911,155.838 178.120,155.744 177.637 C 155.651 177.153,155.575 177.549,155.575 178.516 M132.174 185.352 C 132.175 187.500,132.241 188.329,132.320 187.194 C 132.399 186.059,132.398 184.301,132.318 183.288 C 132.238 182.274,132.173 183.203,132.174 185.352 " stroke="none" fill="#807c78" fill-rule="evenodd"></path><path id="path4" d="M73.565 184.668 C 82.980 184.726,98.273 184.726,107.549 184.668 C 116.825 184.610,109.121 184.562,90.430 184.562 C 71.738 184.562,64.149 184.610,73.565 184.668 M132.186 194.531 C 132.186 197.646,132.247 198.921,132.321 197.363 C 132.395 195.806,132.395 193.257,132.321 191.699 C 132.247 190.142,132.186 191.416,132.186 194.531 " stroke="none" fill="#747c7c" fill-rule="evenodd"></path></g></svg>