<svg xmlns="http://www.w3.org/2000/svg" viewBox="0 0 889.99 187.82">
    <defs>
        <style>.cls-1{fill:#e3ffb6;}.cls-2{fill:#5bb318;}</style>
    </defs>
    <g id="Layer_2">
        <g id="Layer_1-2">
            <circle class="cls-1" cx="93.91" cy="93.91" r="93.91"/>
            <polygon class="cls-2"
                     points="93.91 96.32 37.35 39.76 37.35 75.11 76.24 114 93.91 131.67 111.59 114 150.47 75.11 150.47 39.76 93.91 96.32"/>
            <polygon class="cls-2" points="62.35 148.06 37.35 148.06 37.35 88.37 62.35 113.38 62.35 148.06"/>
            <polygon class="cls-2" points="125.47 148.06 150.47 148.06 150.47 88.37 125.47 113.38 125.47 148.06"/>
            <path class="cls-2"
                  d="M354,60.39q18.13,0,29.1,11.91t11,31.73v64.74H362.42v-62q0-8-3.9-12.65t-11.28-4.64q-7.8,0-12.12,5.27t-4.33,14.55v59.46H299.16v-62q0-8-3.9-12.65T284,89.49q-7.8,0-12.12,5.27t-4.33,14.55v59.46H235.91V63.34h31.62V73q8.66-12.66,28.26-12.65,18.34,0,27.62,13.91Q333.12,60.4,354,60.39Z"/>
            <path class="cls-2" d="M415.77,63.34V168.77H447.4V63.34Z"/>
            <path class="cls-1"
                  d="M450.56,35.08A18.27,18.27,0,0,1,445,48.48a18.86,18.86,0,0,1-26.78,0,18.29,18.29,0,0,1-5.58-13.4,18.3,18.3,0,0,1,5.58-13.39,18.83,18.83,0,0,1,26.78,0A18.28,18.28,0,0,1,450.56,35.08Z"/>
            <path class="cls-2"
                  d="M588.68,60.39q18.12,0,29.09,11.91t11,31.73v64.74H597.11v-62q0-8-3.9-12.65t-11.28-4.64q-7.8,0-12.13,5.27t-4.32,14.55v59.46H533.85v-62q0-8-3.9-12.65t-11.28-4.64c-5.2,0-9.25,1.75-12.12,5.27s-4.33,8.36-4.33,14.55v59.46H470.59V63.34h31.63V73q8.64-12.66,28.26-12.65,18.35,0,27.62,13.91Q567.79,60.4,588.68,60.39Z"/>
            <path class="cls-2"
                  d="M713.5,60.39q20.88,0,35.64,16.13t14.76,39.53q0,23.42-14.76,39.54T713.5,171.72q-20.24,0-31.41-12.86v9.91H650.46V21.17h31.63V73.25Q693.26,60.4,713.5,60.39Zm-24.35,74.43q7.07,7,18,7t18-7q7.06-7,7.06-18.77t-7.06-18.76q-7.07-7-18-7t-18,7q-7.06,7-7.06,18.76T689.15,134.82Z"/>
            <path class="cls-2"
                  d="M858.36,63.34H890V168.77H858.36v-9.91Q847.19,171.73,827,171.72q-20.88,0-35.64-16.13t-14.76-39.54q0-23.4,14.76-39.53T827,60.39q20.24,0,31.41,12.86Zm-43.22,71.48q7,7,18.13,7t18.14-7q6.95-7,7-18.77t-7-18.76q-7-7-18.14-7t-18.13,7q-7,7-7,18.76T815.14,134.82Z"/>
        </g>
    </g>
</svg>
